<svg version="1.1" id="Layer_1" xmlns="http://www.w3.org/2000/svg" xmlns:xlink="http://www.w3.org/1999/xlink" x="0px" y="0px"
	 width="100%" viewBox="0 0 475 473" enable-background="new 0 0 475 473" xml:space="preserve">
<path fill="#010100" opacity="1.000000" stroke="none" 
	d="
M1.000000,257.000000 
	C1.000000,245.312439 1.000000,233.624878 1.381060,221.310699 
	C3.848935,198.753113 8.240562,177.319702 16.062725,156.688187 
	C63.562851,31.403160 205.140457,-28.697639 328.118958,24.633575 
	C442.249939,74.127922 498.048492,203.780411 453.795837,321.336761 
	C410.032806,437.592468 284.264526,499.829865 166.164871,461.945984 
	C74.601341,432.574310 20.943478,368.042389 3.819109,273.330292 
	C2.836317,267.894653 1.937762,262.443787 1.000000,257.000000 
M123.526756,298.018921 
	C108.841850,285.466217 101.481339,269.608826 101.632935,250.211853 
	C101.769646,232.720245 101.661949,215.226715 101.662033,197.734039 
	C101.662041,195.956009 101.662033,194.177979 101.662033,192.420563 
	C90.800064,192.420563 80.581215,192.420563 70.082420,192.420563 
	C70.082420,212.440704 70.049835,232.081253 70.089455,251.721664 
	C70.163567,288.456635 92.159988,321.670166 125.788773,335.902344 
	C159.809937,350.300598 198.914993,343.070435 225.307999,317.073608 
	C245.086014,297.592468 253.867371,273.676453 252.876541,245.907913 
	C252.371826,246.025726 252.164917,246.010773 252.104431,246.097702 
	C251.249512,247.326340 250.386246,248.550735 249.578964,249.810745 
	C241.227417,262.846008 231.040756,273.743225 216.019897,279.218445 
	C214.672363,279.709625 213.566269,281.332336 212.722000,282.666260 
	C192.933258,313.931824 153.705658,320.945007 123.526756,298.018921 
M225.702484,226.225174 
	C223.946976,236.794662 222.191467,247.364151 220.435959,257.933655 
	C220.937622,258.125519 221.439301,258.317383 221.940979,258.509277 
	C226.153824,253.451645 230.096436,248.134842 234.641739,243.396103 
	C241.764252,235.970444 249.231873,228.870331 256.677460,221.762360 
	C260.353699,218.252808 264.605011,215.314758 268.080536,211.631577 
	C279.078857,199.976120 292.309753,192.919754 308.360077,191.932755 
	C343.522156,189.770462 371.867706,215.681442 372.730774,250.951447 
	C373.170868,268.935577 372.845673,286.938385 372.865845,304.932770 
	C372.867859,306.713898 372.866119,308.495056 372.866119,310.522156 
	C383.491486,310.522156 393.564697,310.522156 403.866608,310.522156 
	C403.979401,309.330109 404.148590,308.371552 404.149231,307.412872 
	C404.161804,287.918457 404.741241,268.398834 403.903931,248.940308 
	C403.487946,239.273361 401.664520,229.289230 398.409363,220.188416 
	C385.196533,183.247711 349.639496,159.287079 310.794128,160.170639 
	C271.744537,161.058853 238.508270,186.621658 225.702484,226.225174 
M74.672569,137.997986 
	C66.722084,144.331696 63.945320,152.218414 66.645027,160.798203 
	C69.126442,168.684250 76.175751,174.330765 84.243477,174.894638 
	C92.809677,175.493332 100.788139,170.654495 104.243362,162.764938 
	C107.650665,154.984772 105.886688,146.203049 99.729950,140.295685 
	C93.158806,133.990692 84.340355,133.013519 74.672569,137.997986 
z"/>
<path fill="#FEFEFE" opacity="1.000000" stroke="none" 
	d="
M1.000000,257.468658 
	C1.937762,262.443787 2.836317,267.894653 3.819109,273.330292 
	C20.943478,368.042389 74.601341,432.574310 166.164871,461.945984 
	C284.264526,499.829865 410.032806,437.592468 453.795837,321.336761 
	C498.048492,203.780411 442.249939,74.127922 328.118958,24.633575 
	C205.140457,-28.697639 63.562851,31.403160 16.062725,156.688187 
	C8.240562,177.319702 3.848935,198.753113 1.381060,220.842041 
	C1.000000,147.683914 1.000000,74.367821 1.000000,1.025865 
	C159.278854,1.025865 317.557709,1.025865 475.918274,1.025865 
	C475.918274,158.575073 475.918274,316.150208 475.918274,473.862671 
	C317.666748,473.862671 159.333389,473.862671 1.000000,473.862671 
	C1.000000,401.903412 1.000000,329.920349 1.000000,257.468658 
z"/>
<path fill="#EDE324" opacity="1.000000" stroke="none" 
	d="
M123.803925,298.244324 
	C153.705658,320.945007 192.933258,313.931824 212.722000,282.666260 
	C213.566269,281.332336 214.672363,279.709625 216.019897,279.218445 
	C231.040756,273.743225 241.227417,262.846008 249.578964,249.810745 
	C250.386246,248.550735 251.249512,247.326340 252.104431,246.097702 
	C252.164917,246.010773 252.371826,246.025726 252.876541,245.907913 
	C253.867371,273.676453 245.086014,297.592468 225.307999,317.073608 
	C198.914993,343.070435 159.809937,350.300598 125.788773,335.902344 
	C92.159988,321.670166 70.163567,288.456635 70.089455,251.721664 
	C70.049835,232.081253 70.082420,212.440704 70.082420,192.420563 
	C80.581215,192.420563 90.800064,192.420563 101.662033,192.420563 
	C101.662033,194.177979 101.662041,195.956009 101.662033,197.734039 
	C101.661949,215.226715 101.769646,232.720245 101.632935,250.211853 
	C101.481339,269.608826 108.841850,285.466217 123.803925,298.244324 
z"/>
<path fill="#EDE424" opacity="1.000000" stroke="none" 
	d="
M225.811188,225.837311 
	C238.508270,186.621658 271.744537,161.058853 310.794128,160.170639 
	C349.639496,159.287079 385.196533,183.247711 398.409363,220.188416 
	C401.664520,229.289230 403.487946,239.273361 403.903931,248.940308 
	C404.741241,268.398834 404.161804,287.918457 404.149231,307.412872 
	C404.148590,308.371552 403.979401,309.330109 403.866608,310.522156 
	C393.564697,310.522156 383.491486,310.522156 372.866119,310.522156 
	C372.866119,308.495056 372.867859,306.713898 372.865845,304.932770 
	C372.845673,286.938385 373.170868,268.935577 372.730774,250.951447 
	C371.867706,215.681442 343.522156,189.770462 308.360077,191.932755 
	C292.309753,192.919754 279.078857,199.976120 268.080536,211.631577 
	C264.605011,215.314758 260.353699,218.252808 256.677460,221.762360 
	C249.231873,228.870331 241.764252,235.970444 234.641739,243.396103 
	C230.096436,248.134842 226.153824,253.451645 221.940979,258.509277 
	C221.439301,258.317383 220.937622,258.125519 220.435959,257.933655 
	C222.191467,247.364151 223.946976,236.794662 225.811188,225.837311 
z"/>
<path fill="#EDE323" opacity="1.000000" stroke="none" 
	d="
M74.988083,137.793488 
	C84.340355,133.013519 93.158806,133.990692 99.729950,140.295685 
	C105.886688,146.203049 107.650665,154.984772 104.243362,162.764938 
	C100.788139,170.654495 92.809677,175.493332 84.243477,174.894638 
	C76.175751,174.330765 69.126442,168.684250 66.645027,160.798203 
	C63.945320,152.218414 66.722084,144.331696 74.988083,137.793488 
z"/>
</svg>